<?xml version="1.0" standalone="no"?>
<!DOCTYPE svg PUBLIC "-//W3C//DTD SVG 20010904//EN"
 "http://www.w3.org/TR/2001/REC-SVG-20010904/DTD/svg10.dtd">
<svg version="1.0" xmlns="http://www.w3.org/2000/svg"
 width="2732.000000pt" height="2732.000000pt" viewBox="0 0 2732.000000 2732.000000"
 preserveAspectRatio="xMidYMid meet">
<metadata>
Created by potrace 1.14, written by Peter Selinger 2001-2017
</metadata>
<g transform="translate(0.000000,2732.000000) scale(0.100000,-0.100000)"
fill="#000000" stroke="none">
<path d="M11585 23859 c-103 -10 -197 -20 -220 -26 -44 -9 -61 -13 -80 -17
-119 -24 -333 -103 -438 -163 -33 -18 -61 -33 -64 -33 -3 0 -49 -30 -102 -67
-332 -229 -541 -490 -722 -898 -42 -97 -95 -294 -115 -435 -12 -76 -12 -84
-13 -130 -2 -58 -15 -37 -30 50 -18 103 -21 140 -21 225 0 111 7 162 47 333 6
24 1 25 -102 23 -156 -2 -290 -28 -440 -83 -383 -140 -723 -472 -871 -850 -47
-121 -81 -265 -87 -375 -2 -29 -6 -55 -9 -59 -7 -7 -43 102 -53 162 -20 118
-10 265 24 369 l19 56 -62 -6 c-640 -64 -1233 -424 -1602 -972 -104 -155 -210
-379 -255 -543 -10 -36 -22 -80 -28 -97 -5 -18 -8 -33 -6 -33 3 0 1 -10 -4
-23 -5 -13 -12 -48 -16 -78 -4 -30 -9 -57 -11 -60 -2 -3 -7 -48 -11 -100 -13
-164 -7 -408 13 -524 2 -16 9 -57 15 -90 11 -65 64 -278 78 -310 4 -11 23 -58
41 -105 91 -236 215 -438 390 -640 53 -61 59 -71 30 -51 -146 101 -291 259
-400 436 -54 88 -160 307 -195 406 -47 128 -123 356 -141 419 -9 33 -22 60
-29 60 -43 0 -247 -87 -349 -149 -37 -22 -70 -41 -72 -41 -3 0 -35 -23 -72
-52 -273 -212 -460 -455 -583 -759 -39 -97 -83 -249 -94 -324 -4 -22 -8 -47
-10 -55 -16 -56 -21 -247 -11 -365 35 -401 268 -833 591 -1093 39 -31 72 -60
75 -63 16 -20 205 -135 292 -178 102 -50 252 -104 317 -116 19 -3 38 -8 41
-10 4 -3 25 -7 46 -10 22 -3 48 -7 59 -10 11 -2 47 -7 80 -10 112 -13 81 -17
-148 -20 -325 -4 -688 125 -967 343 -142 111 -319 324 -400 480 l-33 63 -24
-23 c-40 -37 -140 -192 -183 -284 -36 -77 -80 -207 -94 -279 -4 -16 -9 -41
-11 -55 -19 -90 -24 -261 -13 -380 39 -393 279 -750 646 -961 75 -43 213 -103
262 -115 8 -2 40 -10 70 -18 30 -9 84 -19 120 -22 107 -12 40 -23 -110 -19
-200 5 -371 54 -544 157 -66 39 -188 135 -213 168 -20 27 -32 4 -109 -215 -23
-66 -78 -261 -88 -315 -3 -14 -10 -50 -16 -80 -6 -30 -13 -67 -15 -83 -51
-357 -51 -609 0 -841 9 -43 54 -145 81 -185 123 -181 311 -264 584 -257 150 4
263 28 399 86 129 55 306 175 461 314 51 45 233 212 269 246 9 8 46 40 81 70
36 30 67 58 70 61 3 3 41 33 85 66 194 147 321 210 720 358 253 94 276 103
353 136 339 149 568 339 681 566 59 117 60 125 15 147 -80 38 -176 108 -257
188 -75 74 -137 148 -124 148 3 0 32 -14 66 -30 126 -63 369 -139 496 -156 28
-3 53 -8 56 -10 4 -2 44 -7 90 -11 150 -14 415 -8 514 11 11 2 52 9 90 16 143
25 314 81 460 150 481 225 871 661 1045 1167 l29 83 -52 -6 c-148 -18 -382 -5
-537 30 -199 46 -397 133 -581 256 -73 48 -197 150 -198 162 -1 4 20 -4 47
-17 163 -81 435 -159 637 -181 33 -3 74 -8 90 -10 36 -4 337 -4 380 0 17 2 64
6 105 11 41 4 78 9 81 11 3 1 28 6 55 10 27 3 52 8 55 10 3 2 21 6 40 9 55 9
239 63 328 95 464 170 896 505 1126 875 43 69 47 72 122 102 73 30 269 100
303 108 8 3 60 16 115 31 55 14 108 28 118 30 10 2 26 5 35 8 9 3 31 8 47 11
17 2 39 7 50 9 11 2 40 7 65 11 25 4 53 9 64 11 10 2 44 6 75 10 31 3 65 8 76
10 52 10 237 18 395 18 273 0 441 -16 723 -69 59 -11 190 -44 195 -49 2 -3
-20 -2 -49 2 -90 11 -368 4 -479 -13 -14 -2 -50 -7 -80 -10 -30 -3 -66 -8 -80
-10 -21 -3 -99 -13 -310 -40 -52 -7 -143 -14 -254 -21 -54 -3 -106 -7 -116 -9
-9 -2 -41 -6 -71 -10 -223 -27 -472 -141 -542 -249 -70 -106 17 -248 207 -337
73 -34 123 -35 188 -5 77 36 367 119 493 141 71 12 173 24 260 30 74 5 296 6
355 1 51 -4 150 -16 185 -22 17 -3 42 -7 57 -9 15 -2 35 -6 45 -9 10 -3 34 -7
53 -10 20 -3 91 -21 159 -41 67 -19 126 -35 129 -36 4 0 -1 -3 -10 -7 -9 -4
-54 -4 -100 -1 -94 6 -706 2 -813 -5 -208 -15 -326 -30 -475 -62 -135 -30
-228 -71 -268 -120 l-29 -35 -1 -782 c0 -430 -4 -783 -8 -784 -7 -3 -579 -360
-1159 -725 -38 -25 -142 -90 -230 -145 -88 -55 -283 -178 -434 -273 l-274
-172 -41 29 c-59 41 -217 116 -311 146 -110 36 -197 56 -337 76 -75 11 -406
11 -457 0 -20 -4 -61 -10 -91 -13 -96 -11 -273 -55 -329 -83 -71 -34 -127 -86
-141 -129 -23 -67 7 -148 65 -179 28 -16 33 -16 70 -1 220 92 487 149 705 149
67 0 251 -13 260 -18 3 -2 26 -6 50 -9 51 -7 189 -42 198 -50 3 -3 -10 -6 -29
-7 -19 0 -41 -2 -49 -3 -8 -2 -60 -7 -115 -10 -99 -7 -149 -11 -275 -21 -315
-25 -496 -61 -573 -111 -49 -32 -52 -40 -73 -204 -5 -40 -17 -307 -18 -402 0
-49 -3 -82 -7 -75 -6 9 -43 130 -63 202 -2 6 -5 17 -8 25 -3 8 -14 43 -24 78
-19 68 -28 76 -89 82 -68 7 -307 4 -360 -3 -428 -65 -708 -292 -833 -677 -24
-74 -40 -166 -48 -281 -3 -44 -7 -88 -9 -97 -2 -9 -4 -51 -5 -92 l-2 -75 -14
55 c-13 57 -21 101 -30 185 -3 28 -7 64 -9 80 -6 42 -7 288 -1 305 3 8 7 35
10 60 10 77 59 210 78 210 5 0 6 5 3 10 -3 6 -17 10 -30 10 -26 0 -91 14 -162
35 -37 10 -54 9 -153 -17 -672 -171 -1295 -690 -1820 -1518 -128 -202 -256
-342 -520 -570 -41 -36 -77 -67 -80 -70 -3 -3 -30 -25 -60 -50 -30 -25 -59
-50 -65 -56 -5 -6 -66 -55 -135 -110 -69 -54 -127 -101 -130 -105 -18 -20
-595 -455 -655 -493 -16 -11 -34 -23 -40 -28 -9 -8 -185 -131 -375 -262 -36
-24 -105 -73 -155 -107 -367 -253 -770 -492 -1175 -694 -285 -143 -645 -297
-910 -390 -74 -26 -142 -50 -150 -53 -8 -3 -17 -6 -20 -7 -3 -1 -12 -4 -20 -7
-8 -4 -62 -20 -120 -38 -58 -17 -116 -35 -130 -40 -21 -8 -222 -63 -270 -75
-220 -52 -270 -64 -370 -84 -52 -11 -113 -22 -135 -25 -22 -4 -53 -10 -70 -16
-30 -9 19 -7 130 5 22 2 72 7 110 11 39 3 77 8 86 9 9 2 40 6 70 10 79 9 173
23 214 31 11 3 36 7 55 10 19 3 80 14 135 25 55 11 111 22 125 25 14 2 39 7
55 11 17 4 35 8 40 9 9 2 159 38 205 50 22 5 94 24 105 28 6 2 24 6 40 10 261
65 888 283 1112 387 24 10 45 19 47 19 12 0 462 205 536 244 14 8 108 56 210
109 102 52 250 131 329 176 79 44 146 81 148 81 2 0 16 8 31 19 15 10 70 45
122 77 243 149 791 515 1177 787 212 149 228 159 213 144 -8 -8 -125 -104
-260 -213 -135 -108 -247 -200 -250 -203 -3 -3 -95 -78 -205 -166 -110 -88
-205 -164 -211 -170 -6 -5 -112 -92 -236 -192 l-225 -183 0 -597 0 -598 -34
-16 c-97 -47 -580 -157 -894 -203 -22 -4 -65 -11 -95 -16 -30 -5 -73 -12 -95
-14 -98 -14 -111 -16 -130 -19 -11 -3 -46 -8 -79 -12 -32 -3 -68 -8 -80 -10
-29 -5 -171 -23 -231 -30 -27 -3 -59 -7 -70 -9 -11 -2 -51 -7 -90 -11 -38 -4
-77 -8 -85 -10 -14 -3 -67 -9 -180 -21 -25 -2 -63 -7 -85 -9 -22 -3 -67 -7
-100 -10 -33 -3 -71 -8 -85 -10 -14 -2 -59 -7 -100 -10 -41 -3 -86 -8 -100
-10 -14 -2 -63 -7 -110 -10 -47 -4 -92 -8 -100 -10 -8 -2 -53 -6 -100 -9 -47
-4 -101 -9 -120 -11 -19 -2 -69 -7 -110 -10 -41 -3 -100 -8 -130 -11 -30 -3
-75 -7 -100 -9 -25 -2 -85 -7 -135 -10 -49 -4 -106 -8 -125 -10 -44 -4 -203
-17 -250 -20 -19 -2 -59 -3 -89 -4 -102 -2 -44 -12 105 -18 394 -16 1547 -4
2079 22 72 4 168 8 215 10 101 4 271 14 355 20 33 3 103 7 155 10 52 3 111 8
130 10 19 2 76 7 125 10 50 3 110 7 135 10 25 2 72 6 105 9 96 8 208 18 235
22 14 1 52 5 85 8 33 3 74 8 90 11 17 2 59 7 95 10 36 3 76 8 90 10 14 2 50 7
80 10 30 3 66 8 80 10 14 2 50 7 80 10 30 4 62 9 71 10 9 2 40 6 69 10 29 4
62 9 74 11 12 2 36 6 55 9 55 7 105 15 131 20 31 6 123 22 170 30 29 5 321 64
395 80 11 3 42 11 68 19 26 8 47 10 47 5 0 -5 -7 -9 -16 -9 -9 0 -30 -6 -47
-14 -128 -57 -792 -248 -1237 -355 l-155 -37 1 -40 c2 -51 14 -239 19 -284 2
-19 6 -85 10 -146 l7 -112 -28 3 c-26 3 -138 9 -413 20 -52 2 -142 7 -200 10
-170 9 -498 23 -676 30 -71 3 -186 7 -255 10 -69 3 -181 8 -250 10 -69 2 -204
7 -300 11 -181 6 -218 7 -705 20 -724 18 -1389 7 -1525 -26 l-35 -8 45 -2 c92
-5 117 -7 185 -14 39 -3 108 -8 155 -11 47 -3 108 -7 135 -10 49 -5 103 -9
260 -20 44 -3 105 -8 135 -10 30 -3 89 -7 130 -10 41 -3 95 -8 120 -10 25 -2
86 -6 135 -10 138 -10 241 -18 385 -30 25 -2 79 -6 120 -10 41 -3 95 -8 120
-10 43 -4 101 -9 250 -20 36 -3 85 -7 110 -9 25 -3 79 -8 120 -11 41 -3 98 -8
125 -11 28 -2 74 -7 103 -9 28 -3 76 -7 105 -10 109 -11 154 -15 222 -20 39
-3 88 -8 110 -10 22 -2 63 -6 90 -9 125 -12 219 -21 305 -31 30 -3 78 -8 105
-11 28 -3 66 -7 85 -9 19 -2 60 -7 90 -10 30 -3 66 -8 80 -10 14 -2 50 -7 80
-10 269 -29 602 -84 672 -112 31 -13 51 -33 98 -103 33 -49 72 -97 87 -108 39
-27 87 -36 101 -19 13 15 58 12 69 -6 4 -6 -7 -7 -33 -2 -21 4 -36 4 -33 1 5
-6 68 -18 154 -31 122 -18 161 -24 228 -36 32 -5 74 -12 95 -14 40 -5 134 -20
222 -36 30 -5 100 -16 155 -24 55 -8 111 -17 125 -19 14 -3 70 -12 125 -20 55
-9 109 -18 120 -20 11 -2 41 -6 66 -10 52 -8 78 -12 164 -26 62 -10 108 -17
160 -25 17 -3 45 -7 63 -10 17 -3 49 -8 70 -11 72 -11 98 -15 152 -24 30 -5
87 -14 125 -20 39 -5 79 -12 90 -14 11 -2 40 -7 65 -10 25 -3 56 -8 70 -11 23
-5 64 -11 350 -55 41 -6 86 -14 100 -16 14 -3 41 -7 60 -9 19 -3 51 -8 70 -11
19 -4 47 -8 63 -10 15 -2 39 -6 55 -9 33 -6 133 -22 187 -30 22 -4 47 -8 55
-10 8 -3 33 -7 55 -10 117 -18 291 -48 395 -68 41 -9 104 -20 140 -26 36 -6
79 -13 95 -16 52 -9 190 -28 290 -41 22 -2 76 -11 120 -19 44 -8 98 -16 120
-20 22 -3 65 -10 95 -15 30 -5 73 -12 95 -15 47 -7 67 -11 143 -24 31 -6 73
-13 92 -15 19 -3 78 -14 130 -25 52 -10 118 -22 145 -26 28 -3 61 -8 75 -10
14 -2 63 -7 110 -9 75 -5 170 -16 250 -30 46 -8 234 -38 270 -43 19 -2 76 -11
125 -19 50 -8 104 -17 120 -19 17 -3 57 -9 90 -15 135 -22 312 -50 350 -55 22
-2 51 -7 65 -10 13 -2 42 -7 65 -10 22 -3 47 -8 55 -10 8 -2 35 -6 60 -9 25
-3 56 -8 70 -11 14 -3 45 -7 69 -10 24 -3 46 -7 50 -9 3 -2 31 -7 61 -10 30
-4 66 -8 80 -11 38 -7 389 -63 435 -70 22 -3 54 -8 70 -11 17 -3 41 -6 55 -8
14 -2 41 -6 60 -9 19 -4 49 -9 65 -11 17 -2 59 -9 95 -15 36 -5 85 -13 110
-16 24 -4 47 -8 50 -10 3 -1 30 -6 61 -9 31 -4 65 -8 75 -10 11 -2 39 -7 64
-11 25 -4 54 -9 65 -11 10 -2 37 -6 60 -9 22 -4 51 -8 65 -10 68 -11 158 -25
180 -29 26 -5 229 -36 265 -42 23 -3 46 -7 245 -39 136 -21 218 -34 265 -40
11 -2 47 -8 80 -13 33 -6 76 -13 95 -16 19 -3 44 -7 55 -10 11 -2 43 -7 70
-10 28 -4 93 -16 145 -26 117 -23 246 -48 283 -54 15 -3 35 -7 45 -10 9 -3 34
-7 54 -10 21 -3 57 -10 80 -15 24 -5 61 -12 83 -16 55 -8 241 -43 290 -55 22
-5 114 -23 205 -40 91 -17 176 -33 190 -35 53 -11 77 -15 130 -25 30 -6 66
-13 80 -15 14 -3 48 -10 75 -15 28 -5 59 -11 70 -13 11 -3 36 -7 55 -11 19 -3
44 -8 55 -10 11 -2 92 -18 180 -35 88 -17 172 -33 188 -36 15 -3 39 -7 55 -10
68 -13 134 -26 222 -44 52 -11 111 -22 130 -25 19 -3 71 -12 115 -21 95 -19
123 -25 150 -30 154 -28 314 -59 415 -79 69 -13 152 -29 185 -35 33 -6 71 -13
85 -16 22 -4 86 -17 100 -20 3 -1 25 -5 50 -9 25 -5 54 -10 65 -13 19 -4 95
-18 145 -28 14 -3 36 -7 50 -10 14 -3 36 -7 50 -10 14 -3 36 -7 50 -10 14 -2
39 -7 55 -10 17 -2 89 -16 160 -31 72 -14 139 -27 150 -29 11 -1 34 -6 50 -9
17 -3 75 -15 130 -25 55 -11 114 -22 130 -25 53 -11 129 -25 160 -31 64 -11
91 -16 115 -21 20 -3 32 2 50 23 29 34 167 189 269 301 l75 84 64 -7 c35 -3
71 -8 80 -10 9 -1 48 -6 85 -10 37 -3 76 -8 85 -10 9 -1 48 -6 85 -10 37 -3
76 -8 85 -10 9 -1 48 -6 85 -10 37 -3 76 -8 85 -10 9 -1 48 -6 85 -10 37 -3
76 -8 85 -9 9 -2 48 -7 86 -11 38 -4 79 -9 90 -11 12 -1 46 -5 76 -8 54 -5 77
-8 215 -26 39 -5 97 -12 130 -15 33 -3 71 -8 85 -10 14 -2 52 -6 85 -10 33 -3
71 -8 85 -10 14 -2 52 -6 85 -10 33 -3 71 -8 85 -10 29 -4 90 -11 175 -20 33
-4 71 -8 85 -10 14 -2 52 -7 85 -10 33 -3 71 -8 85 -10 14 -3 48 -7 75 -10 46
-5 173 -20 255 -30 19 -2 60 -7 90 -10 30 -4 66 -8 80 -10 14 -2 70 -9 125
-15 55 -6 112 -12 125 -14 14 -3 52 -7 85 -11 33 -4 74 -8 90 -10 34 -5 103
-13 173 -20 26 -3 61 -7 77 -10 17 -2 58 -7 93 -10 35 -4 73 -8 85 -11 12 -2
51 -6 87 -10 36 -3 72 -7 80 -9 8 -1 44 -6 80 -10 36 -3 76 -8 90 -10 14 -2
50 -6 80 -10 30 -3 89 -10 130 -15 41 -6 95 -12 120 -15 25 -2 66 -7 91 -10
26 -3 64 -7 85 -9 22 -3 80 -9 129 -16 50 -6 110 -13 135 -16 25 -2 61 -7 80
-9 19 -3 58 -7 85 -10 50 -6 90 -11 155 -20 19 -2 62 -7 95 -10 33 -3 71 -8
85 -10 14 -2 52 -7 85 -10 110 -12 120 -13 200 -24 44 -5 107 -13 140 -16 33
-3 69 -8 80 -10 11 -2 47 -7 80 -9 69 -6 135 -14 184 -22 19 -3 53 -7 75 -10
85 -9 135 -14 256 -29 69 -8 148 -18 175 -20 28 -3 84 -10 125 -15 41 -5 100
-12 130 -15 30 -3 66 -8 80 -10 37 -5 109 -14 161 -19 26 -3 69 -8 95 -11 27
-3 67 -8 89 -11 22 -2 54 -7 70 -9 23 -4 26 -3 10 4 -11 4 -42 11 -70 15 -65
8 -107 15 -180 28 -33 6 -69 12 -80 13 -64 9 -112 16 -125 20 -16 4 -80 15
-120 20 -70 9 -284 43 -385 60 -44 8 -97 17 -117 20 -68 9 -111 16 -263 41
-82 13 -179 29 -215 34 -36 5 -76 12 -90 14 -14 3 -43 7 -65 11 -22 3 -65 10
-95 15 -30 5 -71 12 -90 15 -19 3 -60 10 -90 15 -30 5 -71 11 -90 14 -19 3
-46 8 -60 10 -14 3 -45 7 -70 10 -41 6 -115 18 -180 30 -14 3 -61 10 -105 16
-44 7 -89 14 -100 16 -10 2 -37 6 -60 9 -22 3 -62 10 -90 15 -27 5 -68 12 -90
15 -22 3 -78 12 -125 20 -47 8 -103 17 -125 20 -23 3 -50 7 -60 9 -11 2 -42 7
-68 10 -27 4 -57 9 -67 11 -9 2 -35 6 -56 10 -43 6 -73 11 -154 25 -30 5 -73
12 -95 15 -23 3 -50 7 -60 9 -11 2 -40 7 -65 10 -25 3 -54 8 -65 10 -11 2 -40
7 -65 11 -25 4 -52 9 -60 10 -8 2 -51 8 -95 15 -44 7 -89 14 -100 16 -11 3
-38 7 -60 10 -22 3 -67 10 -100 16 -33 6 -72 12 -87 14 -97 13 -291 45 -297
48 -3 2 -35 7 -70 10 -36 4 -67 8 -70 10 -3 2 -26 7 -51 10 -25 3 -56 8 -70
11 -14 2 -70 11 -125 20 -55 8 -111 17 -125 19 -14 3 -43 7 -65 11 -55 8 -156
24 -180 29 -11 2 -54 9 -95 16 -41 6 -86 14 -100 16 -14 2 -57 9 -97 15 -39 5
-82 12 -95 14 -22 5 -302 49 -378 61 -19 2 -57 9 -85 14 -27 5 -68 12 -90 15
-58 9 -276 43 -305 49 -14 2 -43 7 -65 10 -22 2 -107 16 -190 30 -192 32 -205
34 -233 35 -22 1 -22 2 14 68 35 67 70 128 105 188 10 17 34 62 55 100 20 39
40 75 45 81 5 6 21 33 35 59 14 26 35 66 48 89 13 23 54 95 91 161 37 66 81
145 97 175 17 30 38 69 49 86 l18 30 -33 70 c-130 266 -215 443 -256 529 -26
55 -89 186 -140 290 -51 105 -116 240 -145 300 -29 61 -90 187 -135 280 -45
94 -108 224 -140 290 -32 66 -98 203 -147 305 -49 102 -105 217 -123 255 -18
39 -34 72 -36 75 -1 3 211 5 472 5 l474 0 0 63 c0 57 -2 63 -25 72 -87 34 -86
31 -11 46 259 50 474 272 552 571 18 70 24 276 10 354 -35 203 -164 409 -323
517 -75 51 -171 90 -263 108 -41 7 -185 7 -217 -1 -13 -3 -32 -7 -44 -10 -51
-11 -168 -60 -179 -75 -3 -4 -17 -13 -32 -21 -34 -18 -124 -102 -166 -157 -52
-66 -120 -203 -144 -294 -31 -115 -31 -326 0 -441 35 -128 82 -218 172 -326
l45 -55 -52 29 c-203 110 -343 319 -392 585 -14 77 -20 218 -11 277 7 41 6 43
-26 53 -172 57 -307 8 -394 -145 -30 -52 -84 -202 -95 -265 -4 -19 -8 -42 -10
-50 -2 -8 -4 -19 -5 -25 -2 -22 -30 47 -51 126 -55 214 11 393 181 487 117 65
299 109 442 107 l46 -1 60 100 c33 56 59 103 57 106 -2 3 -78 5 -169 5 -91 0
-166 1 -166 3 0 2 7 10 15 18 54 55 52 300 -6 634 -11 63 -24 131 -29 150 -5
19 -11 48 -14 63 -11 62 -57 208 -78 244 -134 235 -346 334 -573 269 -120 -35
-284 -137 -410 -255 -49 -46 -53 -41 -29 40 31 105 86 216 170 344 10 16 15
27 9 23 -5 -3 -53 -9 -105 -13 -52 -3 -115 -8 -140 -10 -69 -5 -200 -16 -250
-20 -45 -4 -133 -11 -245 -20 -33 -2 -96 -7 -140 -11 -44 -3 -98 -7 -120 -9
-22 -1 -76 -6 -121 -9 -45 -4 -103 -9 -130 -11 -83 -6 -196 -15 -259 -21 l-60
-6 122 61 c267 134 479 286 688 496 124 124 134 136 226 255 121 157 206 296
292 480 70 147 155 387 173 485 3 16 7 31 9 35 7 11 44 242 52 321 15 146 8
528 -11 624 -2 11 -7 42 -10 69 -4 27 -9 52 -11 55 -1 3 -6 23 -9 43 -3 21
-10 56 -16 78 -5 22 -15 59 -20 83 -36 146 -168 470 -240 587 -5 8 -32 52 -59
98 -122 201 -317 430 -511 602 -49 42 -227 180 -234 180 -3 0 -27 15 -53 33
-191 135 -508 273 -780 341 -114 29 -122 31 -313 61 -146 23 -458 23 -638 0
-72 -9 -118 -16 -143 -21 -21 -4 -28 -1 -33 18 -3 13 -6 179 -6 370 l0 347 93
-3 c196 -7 324 50 382 168 51 104 33 191 -58 279 -64 62 -148 108 -277 153
l-95 33 -3 61 c-3 52 -6 60 -22 60 -16 0 -20 7 -20 38 0 36 22 72 45 72 26 0
219 185 249 239 5 9 12 18 16 21 22 17 210 336 210 356 0 2 14 33 30 69 17 36
30 71 30 78 0 7 4 17 9 23 9 10 85 213 96 257 28 111 54 -140 30 -288 -3 -22
-26 -123 -50 -225 -24 -102 -47 -207 -50 -235 -4 -27 -9 -58 -11 -67 -7 -24
12 -23 78 2 51 20 74 31 163 80 197 109 486 399 687 690 199 289 339 620 373
880 3 25 9 72 14 105 5 33 9 121 9 195 0 518 -207 939 -608 1234 -85 63 -210
134 -314 179 -82 36 -240 91 -291 102 -11 2 -47 11 -80 18 -33 8 -82 18 -108
22 -27 3 -57 8 -67 10 -132 25 -509 22 -635 -5 -22 -5 -58 -11 -79 -14 -21 -4
-50 -9 -62 -12 -41 -10 -26 4 34 31 201 94 308 128 512 165 163 28 452 22 621
-13 136 -29 261 -69 378 -123 41 -19 76 -34 78 -34 9 0 -110 215 -160 290
-350 526 -922 896 -1546 1001 -179 30 -494 32 -651 5 -14 -3 -43 -7 -65 -11
-22 -3 -58 -10 -80 -16 -22 -6 -51 -13 -64 -15 -13 -3 -67 -19 -120 -36 -424
-135 -792 -385 -1087 -738 -150 -179 -285 -409 -360 -612 -16 -43 -32 -78 -36
-78 -8 0 -5 19 26 175 37 184 124 400 230 575 82 134 155 228 272 347 l101
103 -41 33 c-44 36 -210 147 -219 147 -3 0 -31 15 -64 33 -269 152 -715 245
-1038 216z m-5765 -12373 c0 -2 -8 -10 -17 -17 -16 -13 -17 -12 -4 4 13 16 21
21 21 13z m-853 -4132 c-3 -3 -12 -4 -19 -1 -8 3 -5 6 6 6 11 1 17 -2 13 -5z"/>
<path d="M3710 7356 c0 -2 7 -7 16 -10 8 -3 12 -2 9 4 -6 10 -25 14 -25 6z"/>
<path d="M3786 7339 c5 -9 64 -17 64 -8 0 4 -15 9 -34 11 -19 2 -33 1 -30 -3z"/>
<path d="M3868 7323 c7 -3 16 -2 19 1 4 3 -2 6 -13 5 -11 0 -14 -3 -6 -6z"/>
<path d="M3900 7319 c0 -7 89 -23 96 -17 2 2 -19 9 -46 14 -28 6 -50 7 -50 3z"/>
<path d="M4010 7299 c0 -5 8 -9 18 -10 9 0 24 -2 32 -4 8 -2 31 -6 50 -10 19
-3 89 -17 155 -30 66 -13 134 -26 150 -29 17 -3 91 -17 165 -31 74 -15 146
-28 160 -31 14 -2 45 -9 70 -14 25 -5 59 -12 75 -15 17 -3 41 -7 55 -10 14 -2
75 -14 135 -25 61 -12 130 -25 155 -30 46 -10 99 -20 135 -25 11 -2 76 -15
145 -29 69 -15 152 -31 185 -36 65 -11 77 -13 145 -29 25 -5 61 -13 80 -16 29
-5 78 -14 270 -50 175 -33 410 -79 460 -90 36 -7 81 -16 100 -19 19 -3 139
-26 265 -50 127 -25 241 -47 255 -50 14 -2 72 -13 130 -24 58 -12 121 -24 140
-27 19 -3 42 -8 50 -10 8 -2 31 -7 50 -10 19 -3 42 -8 50 -10 8 -2 31 -7 50
-10 19 -3 103 -19 185 -35 83 -16 164 -32 180 -34 17 -3 41 -8 55 -11 14 -3
41 -8 60 -11 19 -3 51 -9 70 -14 19 -5 51 -11 70 -14 36 -6 49 -8 136 -26 28
-6 64 -13 80 -16 16 -2 110 -21 209 -40 99 -20 203 -40 230 -45 28 -4 64 -11
80 -14 17 -3 89 -17 160 -31 72 -14 153 -29 180 -35 28 -6 73 -14 100 -19 59
-11 79 -15 210 -41 55 -11 114 -22 130 -24 17 -3 41 -8 55 -10 14 -3 36 -7 50
-10 14 -2 45 -9 70 -14 25 -6 95 -19 155 -31 61 -11 119 -22 130 -24 33 -6
388 -75 415 -80 14 -2 61 -12 105 -20 44 -8 91 -17 105 -20 14 -2 48 -9 75
-15 28 -6 64 -13 80 -16 89 -17 133 -25 158 -30 15 -3 37 -7 50 -9 48 -10 241
-47 417 -81 102 -19 196 -38 210 -40 14 -3 48 -10 75 -15 68 -12 105 -19 135
-25 14 -3 70 -14 125 -25 108 -20 186 -36 390 -76 72 -14 144 -28 160 -30 17
-3 73 -13 125 -24 52 -10 169 -33 260 -50 91 -17 208 -40 260 -50 52 -10 109
-21 125 -24 17 -4 41 -8 55 -11 14 -3 97 -19 185 -36 88 -17 225 -43 305 -59
80 -16 172 -33 205 -39 73 -13 102 -19 135 -26 14 -3 36 -7 50 -10 14 -3 75
-14 135 -25 61 -12 164 -32 230 -45 66 -13 136 -27 155 -30 19 -3 67 -12 105
-20 39 -8 84 -17 100 -20 17 -2 41 -7 55 -10 14 -3 122 -23 240 -46 118 -22
233 -44 255 -49 22 -5 114 -23 205 -40 91 -17 208 -40 260 -50 52 -10 169 -33
260 -50 91 -17 219 -42 285 -55 66 -13 136 -27 155 -30 19 -3 42 -8 50 -10 8
-2 35 -7 60 -10 24 -4 47 -8 50 -10 3 -2 21 -6 40 -9 19 -3 94 -17 165 -31 72
-15 145 -28 164 -31 18 -2 72 -13 120 -23 47 -11 102 -22 121 -25 51 -8 144
-26 480 -92 177 -34 169 -33 230 -44 71 -13 99 -18 130 -25 14 -3 36 -7 50
-10 14 -3 36 -7 50 -10 14 -3 43 -8 65 -11 22 -3 43 -8 46 -10 3 -2 21 -6 40
-9 19 -3 81 -15 139 -26 58 -12 116 -22 130 -24 14 -1 35 -5 48 -9 12 -4 36
-9 51 -11 16 -2 62 -11 103 -19 40 -8 87 -17 104 -20 17 -3 66 -13 110 -21 43
-9 88 -17 99 -19 11 -2 29 -6 40 -9 11 -3 38 -8 60 -12 22 -3 74 -12 115 -21
41 -8 86 -17 100 -19 14 -2 37 -7 53 -10 15 -3 37 -7 50 -9 12 -2 58 -11 102
-20 214 -43 283 -56 315 -61 19 -3 42 -8 50 -10 8 -2 29 -7 45 -9 33 -6 236
-45 551 -106 110 -22 216 -42 235 -45 19 -3 77 -14 129 -25 52 -11 109 -21
125 -24 17 -3 55 -10 85 -16 30 -6 66 -13 80 -16 14 -2 93 -18 175 -34 83 -16
247 -47 365 -70 118 -22 235 -45 260 -50 25 -5 59 -12 75 -15 27 -4 94 -17
150 -29 11 -2 40 -7 65 -12 25 -4 47 -8 50 -9 37 -8 90 -18 110 -21 14 -3 36
-7 50 -9 14 -3 36 -7 50 -10 14 -3 50 -10 80 -17 30 -6 62 -12 70 -13 17 -2
223 -42 435 -85 77 -16 142 -26 144 -24 2 2 -2 6 -10 8 -27 10 -2385 598
-2414 603 -16 2 -66 13 -110 23 -44 11 -91 22 -105 24 -14 3 -45 9 -70 14
-164 35 -257 55 -345 73 -125 25 -134 27 -165 34 -14 3 -35 7 -46 9 -12 3 -64
13 -115 25 -52 11 -105 22 -119 24 -14 3 -36 8 -50 11 -14 3 -36 8 -50 10 -14
2 -218 43 -455 90 -236 48 -439 88 -450 90 -33 7 -288 56 -315 61 -14 3 -36 7
-50 10 -14 3 -36 8 -50 10 -73 14 -466 90 -600 116 -85 17 -213 41 -285 55
-71 14 -152 29 -180 34 -58 11 -167 32 -280 54 -44 8 -95 18 -112 21 -18 3
-79 14 -135 26 -57 11 -119 22 -138 25 -19 3 -53 9 -75 14 -22 5 -53 11 -70
14 -29 5 -124 23 -360 68 -60 11 -119 22 -130 23 -20 4 -107 20 -155 30 -14 3
-40 8 -59 11 -18 3 -43 8 -55 10 -11 2 -34 6 -51 9 -16 3 -50 9 -75 14 -109
22 -158 31 -195 37 -22 3 -42 7 -45 9 -3 2 -26 6 -50 10 -25 4 -90 15 -145 26
-55 11 -116 22 -135 25 -19 2 -55 9 -80 14 -47 10 -81 16 -140 26 -19 3 -64
12 -100 19 -65 14 -131 26 -160 30 -8 1 -42 8 -75 14 -33 7 -71 14 -85 15 -14
2 -50 8 -80 15 -62 13 -307 58 -360 66 -19 3 -66 12 -105 20 -66 13 -151 28
-220 40 -16 3 -43 8 -60 12 -16 3 -39 7 -50 9 -32 4 -242 43 -345 64 -52 10
-115 21 -140 25 -25 3 -101 17 -170 30 -160 31 -178 34 -220 40 -19 3 -55 10
-80 15 -25 5 -58 12 -75 15 -52 9 -199 35 -220 39 -56 11 -195 36 -229 42 -21
3 -46 7 -55 9 -9 1 -92 17 -186 34 -93 17 -192 35 -220 41 -27 5 -61 11 -75
14 -14 2 -63 11 -110 20 -47 8 -103 18 -125 22 -22 3 -98 16 -170 30 -71 13
-157 29 -190 35 -33 6 -80 15 -105 19 -25 5 -61 12 -80 15 -39 5 -83 13 -120
20 -14 3 -38 8 -55 10 -16 3 -104 19 -195 35 -91 17 -203 37 -250 46 -47 8
-119 21 -160 29 -41 8 -115 21 -165 30 -49 8 -103 18 -120 21 -16 3 -104 19
-195 35 -91 16 -174 31 -185 33 -11 2 -38 7 -60 11 -22 4 -85 15 -140 25 -93
17 -152 27 -200 35 -11 2 -85 15 -165 30 -143 26 -277 49 -335 59 -16 3 -41 7
-55 10 -14 4 -38 8 -55 11 -16 2 -57 9 -90 15 -33 6 -72 13 -88 16 -15 2 -39
6 -55 9 -15 3 -52 10 -82 15 -30 6 -66 12 -80 15 -34 7 -306 54 -350 61 -19 3
-42 7 -50 9 -8 3 -69 14 -135 25 -149 26 -164 29 -195 35 -14 3 -101 18 -195
35 -93 17 -179 32 -190 34 -21 4 -75 12 -140 22 -22 3 -43 8 -46 10 -4 2 -28
6 -55 9 -26 4 -51 8 -54 10 -4 2 -29 7 -56 10 -27 4 -65 10 -84 15 -19 5 -53
11 -75 14 -38 5 -56 8 -122 21 -16 3 -77 14 -138 25 -60 10 -132 23 -160 29
-27 5 -70 12 -95 16 -25 4 -90 15 -145 25 -55 10 -113 21 -130 24 -34 5 -258
44 -295 51 -14 3 -54 10 -90 16 -36 5 -85 14 -110 19 -46 10 -63 13 -165 30
-33 5 -73 12 -90 15 -16 3 -106 19 -200 35 -93 17 -183 33 -200 36 -48 8 -188
33 -215 38 -27 5 -196 34 -245 42 -16 3 -37 7 -45 9 -8 3 -31 7 -50 9 -45 6
-101 16 -120 21 -8 2 -35 7 -60 10 -25 4 -62 10 -82 15 -22 4 -38 4 -38 -1z"/>
<path d="M24998 4813 c7 -3 16 -2 19 1 4 3 -2 6 -13 5 -11 0 -14 -3 -6 -6z"/>
<path d="M25095 4800 c3 -5 8 -10 11 -10 2 0 4 5 4 10 0 6 -5 10 -11 10 -5 0
-7 -4 -4 -10z"/>
<path d="M25128 4793 c6 -2 18 -2 25 0 6 3 1 5 -13 5 -14 0 -19 -2 -12 -5z"/>
<path d="M25270 4769 c58 -10 106 -18 108 -19 1 0 2 4 2 8 0 4 -12 9 -26 10
-15 1 -54 6 -88 12 -33 5 -70 9 -81 9 -11 -1 27 -9 85 -20z"/>
<path d="M25391 4756 c4 -4 194 -38 279 -50 34 -5 276 -44 410 -66 36 -6 79
-13 95 -15 58 -8 160 -25 180 -29 11 -2 47 -7 80 -10 33 -4 110 -13 170 -21
61 -7 133 -16 160 -19 61 -7 123 -15 193 -25 28 -4 52 -5 52 -1 0 4 -26 11
-57 15 -32 3 -69 9 -83 11 -36 6 -149 23 -195 29 -121 17 -183 26 -205 30 -14
2 -45 6 -70 10 -25 3 -56 8 -70 10 -32 5 -89 14 -143 20 -23 3 -51 7 -62 9
-11 2 -45 7 -75 11 -30 4 -66 9 -80 11 -14 3 -41 7 -60 9 -128 18 -159 22
-200 30 -14 2 -45 7 -70 10 -25 4 -85 13 -135 21 -94 15 -121 17 -114 10z"/>
<path d="M27020 4518 c0 -4 14 -8 30 -8 17 0 30 2 30 4 0 2 -13 6 -30 8 -16 3
-30 1 -30 -4z"/>
<path d="M27090 4506 c0 -2 18 -6 39 -8 22 -2 37 0 35 4 -5 8 -74 11 -74 4z"/>
<path d="M23888 3463 c7 -3 16 -2 19 1 4 3 -2 6 -13 5 -11 0 -14 -3 -6 -6z"/>
</g>
</svg>
