<?xml version="1.0" standalone="no"?>
<!DOCTYPE svg PUBLIC "-//W3C//DTD SVG 20010904//EN"
 "http://www.w3.org/TR/2001/REC-SVG-20010904/DTD/svg10.dtd">
<svg version="1.0" xmlns="http://www.w3.org/2000/svg"
 width="3000.000000pt" height="3000.000000pt" viewBox="0 0 3000.000000 3000.000000"
 preserveAspectRatio="xMidYMid meet">
<metadata>
Created by potrace 1.11, written by Peter Selinger 2001-2013
</metadata>
<g transform="translate(0.000000,3000.000000) scale(0.100000,-0.100000)"
fill="#000000" stroke="none">
<path d="M13662 25629 c-484 -37 -936 -267 -1256 -640 -266 -309 -435 -696
-472 -1079 l-7 -75 -14 50 c-35 132 -32 366 6 515 12 44 21 82 21 85 0 11
-233 4 -316 -10 -191 -34 -416 -130 -587 -252 -109 -78 -278 -248 -356 -358
-124 -176 -219 -407 -242 -590 -6 -44 -14 -93 -18 -110 -8 -29 -8 -28 -25 26
-47 158 -47 314 1 462 8 27 12 51 9 55 -4 3 -53 0 -109 -7 -469 -58 -904 -271
-1255 -615 -347 -340 -545 -722 -618 -1191 -23 -150 -23 -469 0 -620 69 -438
245 -829 510 -1130 l61 -69 -50 34 c-74 52 -204 184 -273 278 -140 190 -240
403 -363 774 l-81 246 -49 -14 c-86 -26 -214 -84 -307 -139 -365 -215 -649
-572 -776 -973 -58 -183 -70 -271 -70 -492 0 -174 3 -220 21 -302 33 -145 67
-239 138 -383 87 -174 175 -295 325 -445 276 -276 604 -444 962 -493 l93 -13
-95 -7 c-309 -23 -667 80 -960 274 -186 124 -413 377 -501 562 -13 26 -26 47
-31 47 -13 0 -103 -118 -150 -197 -226 -381 -245 -863 -50 -1248 171 -338 528
-612 891 -682 50 -10 91 -21 91 -25 0 -13 -139 -9 -243 7 -220 33 -407 121
-587 275 l-68 59 -40 -102 c-129 -330 -190 -633 -199 -998 -8 -299 14 -454 82
-590 146 -288 530 -392 939 -255 203 68 355 175 705 494 427 390 550 466 1061
652 473 173 649 266 838 444 98 93 158 174 206 277 54 116 55 109 -19 148 -36
18 -93 54 -127 80 -64 49 -233 220 -224 228 2 2 31 -9 63 -26 139 -70 385
-140 581 -166 131 -17 390 -20 512 -4 676 83 1258 499 1560 1114 56 114 120
273 120 298 0 9 -58 12 -222 12 -193 1 -237 4 -325 23 -284 62 -558 197 -763
375 -24 20 -41 37 -38 37 3 0 34 -13 69 -29 732 -331 1704 -194 2389 337 170
132 408 395 490 540 20 35 34 46 94 71 185 76 445 154 656 195 264 52 364 60
695 60 331 0 437 -9 690 -60 175 -35 196 -43 95 -37 -114 7 -341 -11 -655 -53
-143 -18 -332 -39 -420 -44 -88 -6 -189 -15 -225 -21 -332 -51 -581 -196 -580
-336 1 -82 91 -187 212 -248 95 -47 135 -46 271 5 396 148 861 192 1282 120
107 -18 305 -66 363 -87 11 -4 -176 -8 -416 -8 -278 0 -484 -5 -567 -13 -380
-37 -570 -88 -650 -172 l-30 -31 -5 -787 -5 -786 -1048 -657 -1048 -658 -44
30 c-122 82 -313 156 -516 201 -92 20 -133 22 -349 22 -255 0 -338 -8 -524
-55 -188 -46 -286 -125 -286 -231 0 -44 30 -98 69 -125 l32 -22 82 31 c134 51
265 88 387 110 151 27 420 29 560 4 109 -19 244 -54 217 -55 -124 -6 -590 -45
-682 -57 -141 -18 -188 -27 -273 -55 -87 -29 -118 -58 -131 -122 -17 -81 -31
-277 -31 -436 0 -85 -4 -141 -9 -135 -5 5 -30 82 -56 171 -27 89 -52 167 -56
174 -18 30 -283 38 -447 13 -402 -59 -679 -279 -808 -639 -36 -101 -58 -236
-72 -445 l-8 -115 -18 115 c-49 307 -35 574 39 725 13 27 22 51 20 54 -9 9
-79 -36 -218 -140 -269 -201 -499 -418 -596 -563 l-46 -69 -6 -266 c-4 -146
-13 -630 -20 -1076 -8 -451 -17 -788 -21 -760 -4 28 -22 473 -39 990 -18 517
-33 942 -35 944 -2 3 -456 -313 -614 -428 l-35 -25 25 29 c40 47 392 416 673
705 226 231 382 385 650 639 38 35 66 65 63 68 -7 7 -193 -43 -306 -82 -598
-209 -1174 -725 -1644 -1472 -94 -148 -111 -169 -275 -334 -424 -423 -1160
-991 -2072 -1598 -1018 -678 -2026 -1103 -3124 -1316 -197 -39 -167 -45 87
-19 1084 110 2275 517 3448 1177 302 170 789 490 1500 985 36 25 56 36 45 25
-11 -11 -305 -251 -652 -532 l-633 -512 -2 -602 -3 -601 -100 -32 c-533 -171
-1985 -362 -3688 -485 -120 -9 -164 -16 -157 -23 16 -16 1570 -14 1965 2 1402
58 2429 163 3179 328 87 19 161 33 163 31 12 -13 -700 -220 -1097 -319 -157
-39 -288 -74 -292 -77 -4 -3 2 -131 14 -284 11 -153 17 -281 14 -284 -3 -3
-110 -1 -238 6 -730 35 -1559 69 -2293 92 -530 17 -1505 17 -1674 0 -160 -15
-198 -26 -131 -35 25 -3 203 -17 395 -31 2104 -153 3587 -296 4034 -390 129
-28 142 -36 203 -132 48 -76 109 -133 144 -133 153 0 242 296 245 819 l1 146
24 -50 c13 -28 31 -84 40 -125 22 -100 30 -351 15 -464 -7 -48 -9 -91 -6 -95
4 -3 41 -8 84 -9 l77 -4 11 -51 c29 -137 92 -237 161 -258 79 -23 176 30 248
138 119 176 144 466 73 832 -11 57 -18 106 -15 108 2 3 21 -29 41 -71 72 -149
110 -367 103 -589 l-3 -134 130 -12 c183 -17 493 -57 669 -86 l149 -25 114
-97 c62 -52 112 -98 109 -100 -3 -3 -1171 128 -1254 141 -13 2 -20 0 -15 -4 4
-4 303 -48 663 -99 360 -51 667 -96 681 -101 14 -4 64 -36 110 -70 168 -123
289 -157 397 -110 167 72 285 370 337 855 9 83 20 177 24 210 l7 60 17 -52
c70 -227 34 -685 -84 -1067 -17 -54 -28 -100 -26 -102 6 -6 307 -60 473 -84
182 -28 375 -36 434 -20 58 16 95 56 166 181 57 100 64 130 21 92 -46 -42 -46
-32 2 15 55 55 77 94 126 221 46 119 59 213 52 373 -8 196 -51 328 -139 424
-39 43 -40 45 -10 24 100 -73 172 -271 172 -470 0 -52 4 -89 9 -86 21 14 93
366 103 511 2 22 7 -16 12 -85 21 -320 -74 -893 -196 -1188 -17 -40 -29 -74
-27 -75 14 -8 722 -180 799 -194 138 -25 441 -25 530 0 149 42 276 133 361
259 22 32 38 58 35 58 -3 0 -31 -18 -62 -40 -50 -35 -161 -86 -170 -78 -1 2
27 19 64 38 88 45 196 153 255 255 179 306 185 713 15 1038 -54 102 -183 237
-273 285 -33 17 -53 32 -45 32 23 0 144 -64 191 -101 103 -81 204 -239 252
-394 40 -127 50 -219 45 -382 -6 -173 -4 -172 71 54 53 158 95 346 111 490 7
69 8 37 5 -142 -4 -239 -18 -371 -60 -581 -57 -283 -176 -597 -306 -812 -22
-35 -39 -67 -39 -72 0 -4 31 -10 69 -14 64 -6 218 -31 1031 -170 445 -76 683
-107 825 -109 114 -2 122 -1 166 25 56 33 116 97 173 185 44 69 96 166 96 180
0 4 -26 -18 -57 -49 -55 -53 -127 -99 -155 -98 -7 1 3 9 23 20 20 10 66 51
102 90 243 262 385 926 337 1575 -26 343 -95 647 -196 860 l-36 75 -49 0 -49
0 0 805 c0 681 2 811 14 840 17 39 34 43 77 18 l29 -17 0 -746 0 -745 523 22
c287 13 540 20 563 18 26 -4 59 -20 95 -47 65 -49 193 -112 269 -132 50 -13
-18 -15 -687 -15 l-742 -1 40 -85 c88 -188 154 -453 185 -745 13 -127 15 -206
8 -435 -4 -154 -6 -349 -5 -434 6 -465 -86 -883 -265 -1193 -15 -27 -25 -50
-23 -52 2 -2 119 -25 259 -50 348 -64 2479 -471 4400 -840 872 -167 1595 -306
1607 -308 17 -2 59 39 208 204 169 188 189 207 213 202 63 -11 7325 -864 7329
-860 6 5 216 -29 -3662 591 -1952 312 -3553 570 -3556 574 -3 3 122 233 278
511 155 278 283 510 283 517 0 6 -258 546 -574 1200 l-573 1188 474 3 474 2
-3 66 -3 66 -44 17 -43 17 85 23 c197 52 363 196 458 397 217 458 -11 1019
-462 1140 -85 22 -234 23 -319 1 -122 -32 -206 -82 -311 -187 -86 -85 -102
-107 -147 -200 -73 -153 -87 -215 -86 -390 1 -128 4 -156 28 -235 33 -110 81
-203 147 -285 l51 -62 -52 28 c-117 65 -239 204 -302 343 -58 126 -81 239 -83
405 l-1 149 -40 15 c-65 24 -181 21 -236 -6 -61 -30 -133 -108 -168 -185 -26
-54 -65 -182 -85 -272 -6 -25 -8 -27 -16 -13 -24 43 -49 176 -49 257 1 139 54
242 165 315 104 69 253 112 426 123 l96 6 61 103 c34 56 62 105 62 108 0 3
-74 6 -165 6 -91 0 -165 2 -165 3 0 2 8 19 17 38 41 80 25 381 -38 694 -61
307 -94 388 -211 510 -167 176 -358 201 -603 78 -76 -37 -191 -120 -269 -193
l-49 -45 7 40 c17 89 89 241 180 377 l18 28 -43 -5 c-69 -9 -1436 -115 -1472
-115 -27 0 -16 9 74 54 777 394 1296 1126 1415 1996 26 187 24 520 -5 709
-109 715 -481 1327 -1064 1749 -541 391 -1256 563 -1907 458 -47 -8 -88 -12
-92 -9 -5 2 -8 167 -8 366 l0 362 128 1 c108 0 136 4 186 24 110 42 186 146
186 252 0 133 -140 254 -385 333 l-70 23 -3 61 c-3 53 -6 61 -22 61 -16 0 -20
7 -20 39 0 33 5 42 38 63 246 164 450 487 628 996 26 74 30 80 36 55 16 -58
20 -171 9 -248 -6 -44 -32 -164 -56 -266 -41 -170 -68 -318 -59 -328 8 -9 157
53 230 96 125 73 219 148 355 283 294 292 542 678 648 1007 177 549 113 1084
-177 1493 -119 167 -330 349 -532 458 -372 200 -889 276 -1339 197 -47 -8 -87
-13 -89 -10 -8 7 146 74 253 110 413 139 889 115 1271 -64 46 -22 84 -35 84
-30 0 15 -78 166 -123 239 -120 193 -318 415 -502 563 -639 515 -1467 655
-2192 371 -602 -236 -1087 -714 -1318 -1301 -30 -77 -34 -82 -29 -43 53 395
280 833 569 1098 l65 59 -72 55 c-297 222 -648 350 -1034 378 -151 11 -143 11
-292 -1z m-509 -1396 c-317 -443 -409 -908 -267 -1348 74 -228 224 -463 441
-692 73 -78 71 -79 -42 -32 -158 65 -362 227 -476 379 -100 132 -189 340 -220
510 -19 108 -17 326 5 430 67 320 250 593 515 768 52 34 96 62 97 62 2 0 -22
-35 -53 -77z m1764 -893 c-142 -153 -254 -378 -304 -610 -26 -120 -25 -410 1
-530 120 -551 554 -962 1106 -1045 254 -39 554 6 769 115 34 16 61 29 61 27 0
-9 -142 -98 -210 -132 -96 -48 -255 -101 -364 -120 -51 -8 -147 -15 -226 -15
-163 0 -275 18 -420 66 -201 67 -369 174 -523 333 -185 191 -302 417 -353 678
-26 131 -24 358 5 490 52 249 160 462 320 636 61 65 175 167 188 167 3 0 -20
-27 -50 -60z m-4418 -634 c-2 -1 -35 -29 -74 -61 -298 -246 -524 -546 -624
-827 -104 -296 -88 -567 65 -1082 19 -65 33 -120 30 -123 -7 -8 -100 110 -151
191 -143 230 -213 525 -186 785 48 455 303 827 708 1030 80 40 253 105 232 87z
m869 -1236 c77 -110 165 -210 278 -320 235 -226 484 -351 761 -383 114 -12
393 1 598 28 61 8 130 17 155 20 l45 6 -70 -45 c-109 -71 -263 -131 -430 -168
-94 -20 -380 -17 -485 6 -495 107 -861 462 -986 955 -38 149 -33 158 32 55 30
-49 76 -118 102 -154z m-1069 -2710 c261 -348 586 -571 921 -631 139 -25 483
-10 784 35 87 13 88 13 65 -5 -49 -38 -237 -128 -329 -157 -141 -44 -228 -57
-390 -56 -356 2 -663 134 -911 391 -185 192 -305 434 -344 693 -7 44 -6 44 55
-55 34 -55 101 -152 149 -215z m7833 5 c211 -24 382 -67 586 -147 107 -42 132
-59 46 -33 -91 28 -298 64 -434 76 -495 42 -1044 -101 -1450 -380 -152 -105
-1078 -703 -3472 -2244 -1087 -700 -1977 -1276 -1977 -1280 -1 -5 5 -5 12 -1
6 4 9 4 6 0 -4 -4 -300 -173 -660 -377 -801 -454 -766 -434 -754 -422 31 31
6580 4467 6677 4523 251 144 568 249 863 285 151 18 404 18 557 0z m233 -555
c151 -32 266 -73 420 -150 271 -135 500 -335 666 -582 l42 -63 -99 95 c-213
205 -416 328 -682 414 -178 57 -317 78 -522 78 -210 0 -352 -22 -532 -82 -854
-285 -1350 -1159 -1172 -2065 19 -97 75 -273 114 -361 16 -35 27 -64 25 -64
-2 0 -30 42 -61 93 -280 451 -346 1013 -178 1517 209 627 737 1080 1380 1185
135 22 467 14 599 -15z m-9687 -644 c132 -172 300 -317 457 -392 143 -70 223
-87 400 -86 128 0 369 21 455 38 25 5 25 5 5 -12 -36 -30 -202 -104 -281 -125
-99 -26 -282 -36 -384 -20 -41 7 -119 27 -173 45 -291 100 -529 353 -606 648
-39 147 -37 151 24 54 31 -49 77 -116 103 -150z m7506 -3 c-152 -233 -279
-580 -330 -903 -28 -177 -26 -560 4 -734 88 -512 292 -914 652 -1290 82 -87
89 -95 46 -65 -351 246 -631 692 -757 1204 -55 226 -72 375 -73 635 0 363 45
618 165 925 l39 100 127 77 c71 43 132 77 137 78 4 0 0 -12 -10 -27z m-420
-289 c-38 -100 -99 -350 -120 -489 -26 -168 -26 -581 -1 -745 72 -465 232
-853 477 -1159 180 -224 394 -389 623 -481 44 -17 100 -46 125 -64 26 -18 69
-46 95 -61 26 -15 46 -29 44 -31 -6 -7 -163 62 -257 113 -333 179 -663 480
-851 776 -18 28 -29 36 -44 33 -11 -3 -515 -206 -1119 -451 -605 -245 -1101
-444 -1103 -442 -1 2 486 205 1085 452 966 398 1189 492 1117 470 -11 -3 -649
-265 -1417 -582 -831 -342 -1395 -580 -1391 -586 3 -6 1 -7 -6 -3 -16 10 -53
-3 -45 -16 4 -7 2 -8 -5 -4 -16 10 -53 -3 -45 -16 4 -7 2 -8 -5 -4 -15 9 -53
-3 -46 -15 3 -5 -2 -6 -11 -2 -13 5 -15 3 -9 -7 5 -9 4 -11 -4 -6 -16 10 -53
-3 -45 -16 4 -7 2 -8 -5 -4 -16 10 -53 -3 -45 -16 5 -7 2 -8 -5 -4 -16 10 -73
-13 -64 -27 3 -6 1 -7 -6 -3 -16 10 -53 -3 -45 -16 4 -7 2 -8 -5 -4 -16 10
-53 -3 -45 -16 4 -7 2 -8 -5 -4 -6 4 -480 -186 -1054 -422 -1013 -418 -2045
-839 -2079 -849 -11 -3 -18 2 -20 14 -3 18 -54 -2 -453 -172 l-450 -191 4
-245 4 -245 -76 -32 c-42 -18 -79 -32 -82 -32 -2 0 -6 109 -7 243 l-3 243
-560 -238 c-621 -264 -827 -350 -831 -345 -2 2 310 139 694 304 l697 301 5
919 5 918 23 38 c13 20 27 37 31 37 5 0 15 -17 24 -37 14 -32 20 -171 42 -917
14 -484 27 -881 29 -883 2 -3 1617 692 3587 1542 1971 851 3598 1553 3616
1560 l32 13 -46 104 c-100 227 -169 488 -194 733 -24 240 1 565 62 803 11 46
19 86 16 88 -2 2 -931 -520 -2063 -1162 -2385 -1351 -2081 -1179 -2072 -1170
10 12 4322 2585 4325 2582 2 -2 -8 -34 -23 -72z m-8904 -712 c-18 -139 10
-292 75 -422 97 -193 276 -340 485 -396 90 -25 291 -25 380 -1 90 24 213 86
290 147 l65 51 -66 -63 c-181 -172 -423 -242 -667 -192 -47 9 -118 35 -181 65
-87 43 -116 63 -186 132 -93 93 -151 184 -191 302 -36 107 -45 276 -19 390 9
42 19 75 21 73 2 -3 -1 -41 -6 -86z m7793 -717 c258 -29 470 -55 472 -57 2 -2
-211 -34 -473 -71 l-476 -68 -1225 -569 c-674 -313 -1226 -568 -1227 -567 -2
1 536 316 1194 698 1074 625 1201 696 1232 692 19 -2 246 -28 503 -58z m-4573
-1008 l0 -472 -227 -113 c-149 -74 -217 -103 -196 -85 17 15 94 84 171 151
l139 124 54 434 c29 239 55 434 56 434 2 0 3 -213 3 -473z m3495 -592 c-27
-13 -54 -24 -60 -24 -5 1 13 11 40 24 28 13 55 24 60 24 6 -1 -12 -11 -40 -24z
m-85 -35 c-8 -5 -19 -10 -25 -10 -5 0 -3 5 5 10 8 5 20 10 25 10 6 0 3 -5 -5
-10z m-50 -20 c-8 -5 -19 -10 -25 -10 -5 0 -3 5 5 10 8 5 20 10 25 10 6 0 3
-5 -5 -10z m-50 -20 c-8 -5 -19 -10 -25 -10 -5 0 -3 5 5 10 8 5 20 10 25 10 6
0 3 -5 -5 -10z m-170 -70 c-8 -5 -19 -10 -25 -10 -5 0 -3 5 5 10 8 5 20 10 25
10 6 0 3 -5 -5 -10z m2635 -41 c61 -16 123 -56 155 -101 17 -23 30 -44 30 -48
0 -4 -73 -10 -162 -13 -125 -4 -180 -10 -237 -26 -151 -44 -272 -122 -346
-222 -60 -82 -89 -146 -124 -279 -66 -250 -99 -490 -109 -779 l-7 -195 -37
115 c-89 270 -112 403 -112 639 0 198 10 261 59 383 26 65 25 79 -2 55 -59
-52 -215 -108 -495 -178 -236 -60 -291 -79 -355 -127 -266 -199 -395 -497
-412 -953 l-6 -185 -27 110 c-113 464 -20 899 236 1106 82 66 130 90 438 218
663 276 1186 476 1278 490 71 11 172 6 235 -10z m2170 -419 c776 -38 1442 -73
1480 -77 45 -5 -420 -22 -1315 -46 -762 -21 -1386 -40 -1388 -42 -1 -1 -64
-150 -138 -331 -75 -181 -138 -331 -140 -333 -2 -2 -4 201 -4 451 l0 455 48
-4 c26 -2 682 -35 1457 -73z m-4605 -270 c-8 -5 -19 -10 -25 -10 -5 0 -3 5 5
10 8 5 20 10 25 10 6 0 3 -5 -5 -10z m-41 -14 c-2 -2 -249 -104 -549 -226
-882 -360 -2884 -1179 -3153 -1291 l-248 -102 -112 -96 c-133 -113 -378 -331
-682 -606 -122 -110 -231 -209 -243 -219 l-22 -19 0 429 0 429 83 31 82 31 6
-181 c4 -100 7 -212 8 -249 0 -40 5 -67 11 -65 5 2 183 158 395 348 l386 345
2012 722 c1107 397 2016 722 2021 722 5 1 7 -1 5 -3z m-5559 -180 c0 -2 -8
-10 -17 -17 -16 -13 -17 -12 -4 4 13 16 21 21 21 13z m11205 -585 c1045 -37
1880 -70 1855 -74 -25 -3 -702 -36 -1505 -72 -803 -36 -1506 -68 -1561 -72
l-102 -6 49 -74 c52 -81 100 -195 120 -288 17 -81 16 -244 -1 -330 l-14 -70
-13 75 c-18 107 -58 209 -116 298 -108 165 -262 279 -454 334 -102 30 -303 32
-403 5 -260 -70 -468 -263 -551 -509 l-26 -78 -7 51 c-4 27 -4 78 0 111 l7 61
-84 -6 c-102 -7 -170 -27 -231 -67 -107 -71 -148 -207 -113 -378 5 -20 0 -16
-19 18 -72 128 -90 291 -44 391 61 134 211 211 440 226 l98 6 24 53 c122 267
410 461 686 462 36 0 920 -30 1965 -67z m-6916 -761 c-22 -98 -65 -409 -77
-553 -7 -86 -6 -98 8 -94 8 2 256 152 550 332 294 180 546 335 560 343 l25 15
-20 -20 c-11 -11 -423 -330 -915 -708 -492 -378 -902 -694 -910 -702 -12 -11
23 -13 221 -13 l235 0 115 134 114 134 3 -114 3 -114 209 0 210 0 0 -160 0
-160 -1710 0 -1710 0 0 100 0 100 143 0 143 0 22 118 c53 272 125 523 185 637
l26 50 1 -402 0 -403 438 0 438 0 12 168 c14 200 40 359 88 541 54 207 137
414 193 481 24 29 24 25 11 -75 -21 -162 -60 -780 -60 -953 0 -99 16 -137 65
-158 74 -31 81 -27 365 173 744 523 737 518 744 560 16 89 90 367 126 475 50
149 152 370 165 356 2 -2 -5 -41 -16 -88z m-5159 -270 c-8 -5 -19 -10 -25 -10
-5 0 -3 5 5 10 8 5 20 10 25 10 6 0 3 -5 -5 -10z m-70 -30 c-8 -5 -19 -10 -25
-10 -5 0 -3 5 5 10 8 5 20 10 25 10 6 0 3 -5 -5 -10z m8034 -442 c-5 -7 -28
-44 -52 -81 -102 -158 -193 -393 -247 -632 -104 -467 -110 -1053 -14 -1535 66
-335 168 -631 248 -723 18 -20 30 -37 26 -37 -4 0 -35 15 -68 33 -215 114
-391 411 -482 812 -50 221 -85 541 -85 779 0 646 220 1148 595 1357 74 41 91
47 79 27z m4226 -158 c1666 -27 2291 -48 2374 -80 18 -7 16 -9 -19 -18 -57
-16 -148 -29 -319 -47 -129 -13 -405 -15 -2050 -14 -1671 0 -1894 2 -1846 15
73 19 226 95 270 134 l35 31 480 -6 c264 -3 748 -10 1075 -15z m2610 -1180
c270 -629 527 -1242 568 -1352 l21 -57 -83 -168 c-110 -221 -638 -1186 -666
-1216 -4 -5 -45 3 -91 17 -364 111 -1731 404 -3824 821 -1429 284 -1587 316
-1539 310 l41 -5 6 168 c4 92 14 577 22 1077 9 501 19 928 23 950 5 28 46
-291 140 -1095 74 -624 134 -1136 135 -1137 3 -2 411 -52 412 -50 1 1 -13 517
-31 1147 -18 630 -32 1149 -31 1153 1 5 76 -517 165 -1159 89 -642 164 -1169
166 -1172 5 -4 459 -63 461 -59 1 1 -43 515 -97 1142 -54 627 -97 1155 -95
1173 1 17 103 -500 226 -1150 123 -651 228 -1188 235 -1194 10 -10 454 -70
461 -62 2 2 -66 550 -151 1218 -85 668 -153 1221 -151 1229 1 7 137 -545 301
-1228 165 -683 303 -1246 307 -1252 7 -12 396 -65 406 -55 3 3 -98 571 -225
1263 -128 691 -230 1258 -229 1260 2 1 167 -572 367 -1275 199 -702 366 -1281
370 -1285 7 -8 418 -62 425 -56 2 2 -124 580 -280 1284 -157 704 -283 1284
-282 1288 2 5 186 -577 410 -1294 224 -717 410 -1306 414 -1310 9 -9 416 -62
436 -57 11 2 -64 305 -329 1328 -189 729 -342 1329 -341 1334 2 5 216 -601
476 -1347 l474 -1355 71 -10 c150 -22 356 -45 361 -40 3 2 -177 629 -400 1393
-222 764 -403 1390 -401 1392 1 1 246 -624 543 -1390 298 -765 546 -1392 551
-1392 12 0 252 289 252 303 0 6 -191 574 -425 1263 -234 689 -424 1254 -422
1255 1 1 225 -523 497 -1166 272 -643 498 -1170 502 -1170 10 0 212 248 216
264 2 8 -141 490 -318 1073 -363 1194 -334 1100 -327 1093 2 -3 127 -291 277
-640z m-4303 538 c-3 -7 -5 -2 -5 12 0 14 2 19 5 13 2 -7 2 -19 0 -25z m1780
-40 c-3 -8 -6 -5 -6 6 -1 11 2 17 5 13 3 -3 4 -12 1 -19z m-9631 -377 c-8 -53
10 -362 29 -480 30 -186 59 -274 163 -484 8 -15 -62 25 -113 65 -131 103 -228
275 -286 503 -31 123 -59 307 -59 385 l0 50 136 0 137 0 -7 -39z m224 -43 c0
-193 57 -565 107 -705 17 -49 -65 73 -103 152 -69 145 -109 319 -121 523 l-6
112 61 0 62 0 0 -82z m898 -101 c32 -493 103 -770 241 -945 23 -28 41 -53 41
-56 0 -8 -83 15 -123 35 -228 115 -385 503 -425 1047 l-8 102 131 0 131 0 12
-183z m231 16 c14 -196 45 -448 71 -583 10 -52 17 -96 15 -98 -1 -2 -26 51
-53 117 -90 211 -140 403 -161 611 -6 56 -11 106 -11 111 0 5 28 9 63 9 l64 0
12 -167z m1121 100 c0 -253 70 -646 150 -849 93 -233 241 -428 377 -498 l48
-24 -36 -7 c-49 -9 -137 9 -206 42 -70 34 -182 142 -242 233 -109 167 -214
430 -289 725 -36 140 -92 407 -92 435 0 6 56 10 145 10 l145 0 0 -67z m253
-67 c16 -320 97 -661 227 -952 39 -85 23 -73 -40 31 -176 292 -290 675 -290
977 l0 78 48 0 49 0 6 -134z m2407 -249 c0 -154 150 -874 244 -1172 l35 -110
-34 40 c-167 196 -282 628 -311 1168 l-7 127 37 0 36 0 0 -53z m-811 -581 c26
-197 86 -377 150 -445 l29 -31 -214 0 c-118 0 -214 4 -214 9 0 10 67 483 75
529 l6 32 78 0 78 0 12 -94z"/>
<path d="M5666 9151 c11 -10 20374 -3934 20380 -3928 8 8 -2569 647 -2851 706
-2607 553 -9586 1840 -16780 3096 -396 69 -729 127 -739 130 -10 2 -15 0 -10
-4z"/>
</g>
</svg>
